<svg width="22" height="23" viewBox="0 0 22 23" fill="none" xmlns="http://www.w3.org/2000/svg">
<g clip-path="url(#clip0_80_31)">
<path d="M11 23C9.07 23 7.5 21.43 7.5 19.5C7.5 19.224 7.724 19 8 19C8.276 19 8.5 19.224 8.5 19.5C8.5 20.878 9.621 22 11 22C12.379 22 13.5 20.878 13.5 19.5C13.5 19.224 13.724 19 14 19C14.276 19 14.5 19.224 14.5 19.5C14.5 21.43 12.93 23 11 23Z" fill="currentColor"/>
<path d="M19.5 18H2.5C1.673 18 0.5 17.327 0.5 16.5C0.5 16.061 1.191 15.646 1.524 15.36C1.545 15.342 1.568 15.326 1.591 15.312C3.123 13.982 4 12.064 4 10.04V7C4 3.14 7.141 0 11 0C11.08 0 11.177 0.00300005 11.257 0.019C11.528 0.072 11.704 0.335 11.651 0.606C11.599 0.876999 11.335 1.053 11.063 0.999999C7.691 0.999999 5 3.692 5 7V10.04C5 12.383 3.974 14.599 2.185 16.121C2.169 16.134 2.153 16.147 2.135 16.158C2.049 16.25 2 16.372 2 16.5C2 16.776 2.225 17 2.5 17H19.5C19.775 17 20 16.776 20 16.5C20 16.372 19.951 16.249 19.863 16.157C19.846 16.146 19.831 16.134 19.815 16.121C18.026 14.599 17 12.383 17 10.04V8.96999C17 8.69399 17.224 8.46999 17.5 8.46999C17.776 8.46999 18 8.69399 18 8.96999V10.04C18 12.066 18.878 13.984 20.411 15.314C20.434 15.328 20.456 15.343 20.475 15.36C20.809 15.646 21.5 16.061 21.5 16.5C21.5 17.327 20.327 18 19.5 18Z" fill="currentColor"/>
<g clip-path="url(#clip1_80_31)">
<path d="M11 23C12.93 23 14.5 21.43 14.5 19.5C14.5 19.224 14.276 19 14 19C13.724 19 13.5 19.224 13.5 19.5C13.5 20.878 12.379 22 11 22C9.621 22 8.5 20.878 8.5 19.5C8.5 19.224 8.276 19 8 19C7.724 19 7.5 19.224 7.5 19.5C7.5 21.43 9.07 23 11 23Z" fill="currentColor"/>
<path d="M2.5 18H19.5C20.327 18 21.5 17.327 21.5 16.5C21.5 16.061 20.809 15.646 20.476 15.36C20.455 15.342 20.432 15.326 20.409 15.312C18.877 13.982 18 12.064 18 10.04V7C18 3.14 14.859 0 11 0C10.92 0 10.823 0.00300005 10.743 0.019C10.472 0.072 10.296 0.335 10.349 0.606C10.401 0.876999 10.665 1.053 10.937 0.999999C14.309 0.999999 17 3.692 17 7V10.04C17 12.383 18.026 14.599 19.815 16.121C19.831 16.134 19.847 16.147 19.865 16.158C19.951 16.25 20 16.372 20 16.5C20 16.776 19.775 17 19.5 17H2.5C2.225 17 2 16.776 2 16.5C2 16.372 2.049 16.249 2.137 16.157C2.154 16.146 2.169 16.134 2.185 16.121C3.974 14.599 5 12.383 5 10.04V8.96999C5 8.69399 4.776 8.46999 4.5 8.46999C4.224 8.46999 4 8.69399 4 8.96999V10.04C4 12.066 3.122 13.984 1.589 15.314C1.566 15.328 1.544 15.343 1.525 15.36C1.191 15.646 0.5 16.061 0.5 16.5C0.5 17.327 1.673 18 2.5 18Z" fill="currentColor"/>
</g>
</g>
<defs>
<clipPath id="clip0_80_31">
<rect width="22" height="23" fill="currentColor"/>
</clipPath>
<clipPath id="clip1_80_31">
<rect width="22" height="23" fill="currentColor" transform="matrix(-1 0 0 1 22 0)"/>
</clipPath>
</defs>
</svg>
